<?xml version="1.0" standalone="no"?>
<svg xmlns:xlink="http://www.w3.org/1999/xlink" id="wave" style="transform:rotate(0deg); transition: 0.3s" viewBox="0 0 1440 490" version="1.1" xmlns="http://www.w3.org/2000/svg"><defs><linearGradient id="sw-gradient-0" x1="0" x2="0" y1="1" y2="0"><stop stop-color="rgba(232, 74, 95, 1)" offset="0%"/><stop stop-color="rgba(254, 212, 238, 1)" offset="100%"/></linearGradient></defs><path style="transform:translate(0, 0px); opacity:1" fill="url(#sw-gradient-0)" d="M0,0L40,24.5C80,49,160,98,240,138.8C320,180,400,212,480,212.3C560,212,640,180,720,138.8C800,98,880,49,960,57.2C1040,65,1120,131,1200,196C1280,261,1360,327,1440,310.3C1520,294,1600,196,1680,171.5C1760,147,1840,196,1920,179.7C2000,163,2080,82,2160,98C2240,114,2320,229,2400,236.8C2480,245,2560,147,2640,98C2720,49,2800,49,2880,57.2C2960,65,3040,82,3120,138.8C3200,196,3280,294,3360,343C3440,392,3520,392,3600,359.3C3680,327,3760,261,3840,269.5C3920,278,4000,359,4080,367.5C4160,376,4240,310,4320,253.2C4400,196,4480,147,4560,122.5C4640,98,4720,98,4800,122.5C4880,147,4960,196,5040,236.8C5120,278,5200,310,5280,310.3C5360,310,5440,278,5520,228.7C5600,180,5680,114,5720,81.7L5760,49L5760,490L5720,490C5680,490,5600,490,5520,490C5440,490,5360,490,5280,490C5200,490,5120,490,5040,490C4960,490,4880,490,4800,490C4720,490,4640,490,4560,490C4480,490,4400,490,4320,490C4240,490,4160,490,4080,490C4000,490,3920,490,3840,490C3760,490,3680,490,3600,490C3520,490,3440,490,3360,490C3280,490,3200,490,3120,490C3040,490,2960,490,2880,490C2800,490,2720,490,2640,490C2560,490,2480,490,2400,490C2320,490,2240,490,2160,490C2080,490,2000,490,1920,490C1840,490,1760,490,1680,490C1600,490,1520,490,1440,490C1360,490,1280,490,1200,490C1120,490,1040,490,960,490C880,490,800,490,720,490C640,490,560,490,480,490C400,490,320,490,240,490C160,490,80,490,40,490L0,490Z"/></svg>